<?xml version="1.0" encoding="utf-8"?>
<!-- Generator: Adobe Illustrator 17.0.0, SVG Export Plug-In . SVG Version: 6.00 Build 0)  -->
<!DOCTYPE svg PUBLIC "-//W3C//DTD SVG 1.1//EN" "http://www.w3.org/Graphics/SVG/1.1/DTD/svg11.dtd">
<svg version="1.1" id="Layer_1" xmlns="http://www.w3.org/2000/svg" xmlns:xlink="http://www.w3.org/1999/xlink" x="0px" y="0px"
	 width="16px" height="16px" viewBox="-24.375 0 16 16" enable-background="new -24.375 0 16 16" xml:space="preserve">
<g>
	<path fill="#625454" d="M-15.104,12.846c0,0.702-0.569,1.271-1.271,1.271l0,0c-0.702,0-1.271-0.569-1.271-1.271V3.154
		c0-0.702,0.569-1.271,1.271-1.271l0,0c0.702,0,1.271,0.569,1.271,1.271V12.846z"/>
	<path fill="#625454" d="M-20.333,12.846c0,0.702-0.569,1.271-1.271,1.271l0,0c-0.702,0-1.271-0.569-1.271-1.271V3.154
		c0-0.702,0.569-1.271,1.271-1.271l0,0c0.702,0,1.271,0.569,1.271,1.271V12.846z"/>
	<path fill="#625454" d="M-9.875,12.846c0,0.702-0.569,1.271-1.271,1.271l0,0c-0.702,0-1.271-0.569-1.271-1.271V3.154
		c0-0.702,0.569-1.271,1.271-1.271l0,0c0.702,0,1.271,0.569,1.271,1.271V12.846z"/>
</g>
</svg>
