<?xml version="1.0" encoding="utf-8"?>
<!-- Generator: Adobe Illustrator 17.0.0, SVG Export Plug-In . SVG Version: 6.00 Build 0)  -->
<!DOCTYPE svg PUBLIC "-//W3C//DTD SVG 1.1//EN" "http://www.w3.org/Graphics/SVG/1.1/DTD/svg11.dtd">
<svg version="1.1" id="Layer_1" xmlns="http://www.w3.org/2000/svg" xmlns:xlink="http://www.w3.org/1999/xlink" x="0px" y="0px"
	 width="16px" height="16px" viewBox="0 0 16 16" enable-background="new 0 0 16 16" xml:space="preserve">
<g>
	<path fill="#BBBBBB" d="M11.141,9.796l4.271,3.503c0.482,0.444,0.475,1.092-0.01,1.45l0,0c-0.485,0.358-1.271,0.693-1.752,0.251
		l-4.271-3.909c-0.482-0.444-0.104-0.545,0.381-0.904"/>
	<path fill="none" stroke="#BBBBBB" stroke-width="1.5" stroke-miterlimit="10" d="M11.968,6.616c0,3.166-1.734,5.188-5.25,5.188
		l0,0C3.36,11.7,1.464,9.796,1.464,6.616l0,0c0.312-3.604,2.229-4.854,5.254-5.188l0,0C9.617,1.429,11.968,3.751,11.968,6.616
		L11.968,6.616z"/>
</g>
</svg>
