<?xml version="1.0" encoding="utf-8"?>
<!-- Generator: Adobe Illustrator 17.0.0, SVG Export Plug-In . SVG Version: 6.00 Build 0)  -->
<!DOCTYPE svg PUBLIC "-//W3C//DTD SVG 1.1//EN" "http://www.w3.org/Graphics/SVG/1.1/DTD/svg11.dtd">
<svg version="1.1" id="Layer_1" xmlns="http://www.w3.org/2000/svg" xmlns:xlink="http://www.w3.org/1999/xlink" x="0px" y="0px"
	 width="16px" height="16px" viewBox="20.625 0 16 16" enable-background="new 20.625 0 16 16" xml:space="preserve">
<g>
	<rect x="10" y="3" fill="#8F83B8" width="6" height="2"/>
	<polygon fill="#8F83B8" points="3,7 9,7 9,1 3,1 3,3 0,3 0,5 3,5 	"/>
	<rect y="11" fill="#8F83B8" width="6" height="2"/>
	<polygon fill="#8F83B8" points="13,9 7,9 7,15 13,15 13,13 16,13 16,11 13,11 	"/>
</g>
<g>
	<rect x="-14.375" y="3" fill="#8F83B8" width="6" height="2"/>
	<polygon fill="#8F83B8" points="-21.375,7 -15.375,7 -15.375,1 -21.375,1 -21.375,3 -24.375,3 -24.375,5 -21.375,5 	"/>
	<rect x="-24.375" y="11" fill="#8F83B8" width="6" height="2"/>
	<polygon fill="#8F83B8" points="-11.375,9 -17.375,9 -17.375,15 -11.375,15 -11.375,13 -8.375,13 -8.375,11 -11.375,11 	"/>
</g>
<g>
	<rect x="30.625" y="3" fill="#8F83B8" width="6" height="2"/>
	<polygon fill="#8F83B8" points="23.625,7 29.625,7 29.625,1 23.625,1 23.625,3 20.625,3 20.625,5 23.625,5 	"/>
	<rect x="20.625" y="11" fill="#8F83B8" width="6" height="2"/>
	<polygon fill="#8F83B8" points="33.625,9 27.625,9 27.625,15 33.625,15 33.625,13 36.625,13 36.625,11 33.625,11 	"/>
</g>
</svg>
